<svg version="1.2" xmlns="http://www.w3.org/2000/svg" viewBox="0 0 40 40" width="40" height="40">
	<defs>
		<clipPath clipPathUnits="userSpaceOnUse" id="cp1">
			<path d="m4 4h32v32h-32z"/>
		</clipPath>
	</defs>
	<style>
		.s0 { fill: #ffffff } 
	</style>
	<g id="Clip-Path" clip-path="url(#cp1)">
		<g>
			<path class="s0" d="m20.67 26.77l7.25-7.25q0.19-0.19 0.46-0.2 0.26-0.01 0.48 0.21 0.21 0.22 0.22 0.47 0 0.25-0.22 0.47l-8.11 8.11q-0.17 0.17-0.35 0.24-0.18 0.08-0.4 0.08-0.22 0-0.4-0.08-0.18-0.07-0.35-0.24l-8.11-8.11q-0.19-0.19-0.2-0.45-0.01-0.27 0.2-0.49 0.22-0.22 0.47-0.22 0.26 0 0.48 0.22l7.24 7.24v-15.44q0-0.28 0.19-0.47 0.2-0.19 0.48-0.19 0.28 0 0.48 0.19 0.19 0.19 0.19 0.47z"/>
		</g>
	</g>
</svg>