<svg width="106" height="116" viewBox="0 0 106 116" fill="none" xmlns="http://www.w3.org/2000/svg">
<path d="M81.143 8.45657C80.7356 6.31742 79.0803 4.58572 76.9666 4.12733C76.8647 4.10186 76.7628 4.10186 76.6355 4.0764C76.61 4.0764 76.5846 4.02547 76.5591 4H29.8542C29.8288 4.02547 29.8033 4.0764 29.7524 4.0764C27.6387 4.43292 25.8561 6.11369 25.3722 8.25284C25.3467 8.32924 25.2958 8.4311 25.2449 8.53297V55.3652C25.2703 55.4161 25.3213 55.4416 25.3213 55.4925C25.8306 57.8354 27.2567 59.2869 29.5741 59.8727C29.6505 59.8981 29.7014 59.9491 29.7524 60H76.6355C76.6864 59.9745 76.7119 59.9236 76.7628 59.8981C79.0803 59.3633 80.5064 57.9627 81.0921 55.6453C81.1175 55.5689 81.0921 55.467 81.1175 55.3906C81.1175 55.3652 81.1685 55.3397 81.1939 55.3142V8.60937C81.1939 8.55844 81.143 8.53297 81.143 8.45657ZM57.7142 35.0432H57.4341C55.3204 35.0432 53.1812 35.0432 51.0675 35.0432C50.9657 35.0432 50.8638 35.0432 50.7619 35.0432C50.7619 35.0687 50.7365 35.0687 50.7365 35.0941C50.7365 35.196 50.7365 35.2979 50.7365 35.3997V55.0341H45.1594V35.0687H38.1562V30.6121H57.6887V35.0432H57.7142ZM76.5082 48.362C76.4572 49.2278 76.3299 50.0682 75.9734 50.8831C75.8715 51.1378 75.7951 51.367 75.6678 51.6216C75.2094 52.5894 74.4454 53.2769 73.5541 53.8372C72.5355 54.4739 71.415 54.8304 70.2435 55.0596C68.9447 55.3142 67.646 55.3906 66.3217 55.3397C65.6851 55.3142 65.0484 55.3142 64.4118 55.2378C62.9093 55.0596 61.4322 54.7285 60.0571 54.0664C59.9807 54.0409 59.8788 53.9136 59.8788 53.8372C59.8788 52.1819 59.8788 50.5266 59.8788 48.8713C59.8788 48.8458 59.8788 48.8204 59.8788 48.7694C60.2863 49.0496 60.6937 49.3297 61.1012 49.5589C62.0944 50.1446 63.1894 50.5521 64.3099 50.8067C65.2776 51.0359 66.2453 51.0614 67.213 51.0105C67.9516 50.985 68.6901 50.8067 69.3522 50.4757C69.9379 50.1701 70.4218 49.7626 70.5491 49.075C70.6764 48.4638 70.6255 47.8527 70.269 47.3179C69.7597 46.5539 69.0466 46.07 68.2572 45.6626C67.3658 45.2296 66.4745 44.8477 65.5577 44.4402C64.208 43.829 62.8838 43.1669 61.7888 42.1483C60.8974 41.3079 60.2353 40.3147 59.9297 39.1178C59.7515 38.4047 59.7005 37.6917 59.726 36.9786C59.7515 35.2215 60.3881 33.719 61.636 32.4711C62.6546 31.4525 63.9024 30.8413 65.2776 30.4848C66.2199 30.2556 67.1621 30.0773 68.1298 30.0518C68.8174 30.0518 69.505 29.9754 70.1671 30.0009C71.2112 30.0264 72.2299 30.0773 73.2485 30.332C73.9106 30.5102 74.5982 30.6885 75.2603 30.8413C75.3877 30.8668 75.4386 30.9432 75.4386 31.096C75.4386 32.6749 75.4386 34.2792 75.4386 35.8581C75.4386 35.909 75.4386 35.96 75.4131 36.0364C75.2094 35.909 75.0311 35.8072 74.8529 35.7053C74.038 35.2469 73.1721 34.9413 72.2808 34.7121C71.2876 34.4829 70.2944 34.3301 69.2758 34.3556C68.5882 34.3811 67.8752 34.4829 67.2385 34.7121C66.4491 34.9923 65.8124 35.4507 65.5323 36.291C65.3031 36.9532 65.4813 37.5134 65.8888 38.0482C66.3981 38.7103 67.0857 39.1687 67.8242 39.5252C68.8174 40.0091 69.8361 40.4166 70.8038 40.8749C71.9243 41.4097 73.0448 41.9445 73.987 42.734C74.8019 43.4216 75.5405 44.1855 75.9479 45.2042C76.1771 45.8154 76.3808 46.452 76.3808 47.1396C76.4827 47.5471 76.5336 47.9545 76.5082 48.362Z" fill="white"/>
<path d="M5.42703 77.948V89H3.87003V77.948H2.93478e-05V76.607H9.35103L9.18903 77.948H5.42703ZM19.766 79.523L16.436 89.063C16.214 89.705 15.932 90.293 15.59 90.827C15.254 91.361 14.813 91.802 14.267 92.15C13.727 92.504 13.04 92.723 12.206 92.807L11.972 91.601C12.626 91.493 13.142 91.328 13.52 91.106C13.898 90.884 14.195 90.599 14.411 90.251C14.633 89.903 14.828 89.486 14.996 89H14.492L11.18 79.523H12.8L15.518 87.848L18.2 79.523H19.766ZM26.914 79.325C27.754 79.325 28.423 79.529 28.921 79.937C29.425 80.345 29.788 80.921 30.01 81.665C30.232 82.403 30.343 83.267 30.343 84.257C30.343 85.211 30.208 86.063 29.938 86.813C29.674 87.557 29.272 88.142 28.732 88.568C28.192 88.994 27.511 89.207 26.689 89.207C25.651 89.207 24.817 88.841 24.187 88.109V92.627L22.675 92.816V79.523H23.962L24.088 80.846C24.436 80.36 24.85 79.985 25.33 79.721C25.816 79.457 26.344 79.325 26.914 79.325ZM26.554 80.54C26.032 80.54 25.57 80.699 25.168 81.017C24.772 81.329 24.445 81.677 24.187 82.061V86.759C24.433 87.125 24.742 87.416 25.114 87.632C25.492 87.842 25.906 87.947 26.356 87.947C27.142 87.947 27.733 87.647 28.129 87.047C28.525 86.447 28.723 85.514 28.723 84.248C28.723 83.42 28.645 82.733 28.489 82.187C28.333 81.635 28.096 81.224 27.778 80.954C27.46 80.678 27.052 80.54 26.554 80.54ZM34.6559 84.797C34.6859 85.529 34.8269 86.129 35.0789 86.597C35.3309 87.059 35.6639 87.401 36.0779 87.623C36.4919 87.839 36.9419 87.947 37.4279 87.947C37.9139 87.947 38.3519 87.875 38.7419 87.731C39.1379 87.587 39.5429 87.374 39.9569 87.092L40.6679 88.091C40.2239 88.439 39.7169 88.712 39.1469 88.91C38.5829 89.108 38.0039 89.207 37.4099 89.207C36.4919 89.207 35.7089 89 35.0609 88.586C34.4129 88.172 33.9179 87.596 33.5759 86.858C33.2399 86.114 33.0719 85.253 33.0719 84.275C33.0719 83.315 33.2429 82.463 33.5849 81.719C33.9269 80.975 34.4069 80.39 35.0249 79.964C35.6429 79.538 36.3719 79.325 37.2119 79.325C38.0099 79.325 38.6969 79.514 39.2729 79.892C39.8489 80.264 40.2899 80.798 40.5959 81.494C40.9079 82.184 41.0639 83.009 41.0639 83.969C41.0639 84.131 41.0609 84.284 41.0549 84.428C41.0489 84.566 41.0399 84.689 41.0279 84.797H34.6559ZM37.2299 80.567C36.5279 80.567 35.9399 80.816 35.4659 81.314C34.9979 81.812 34.7309 82.583 34.6649 83.627H39.6059C39.5879 82.613 39.3659 81.851 38.9399 81.341C38.5139 80.825 37.9439 80.567 37.2299 80.567ZM52.1089 85.571C52.1089 86.279 51.9319 86.909 51.5779 87.461C51.2239 88.007 50.7109 88.436 50.0389 88.748C49.3669 89.054 48.5479 89.207 47.5819 89.207C46.6759 89.207 45.8539 89.069 45.1159 88.793C44.3839 88.517 43.7569 88.127 43.2349 87.623L44.1619 86.579C44.5939 86.981 45.0889 87.302 45.6469 87.542C46.2049 87.776 46.8589 87.893 47.6089 87.893C48.1129 87.893 48.5839 87.812 49.0219 87.65C49.4599 87.482 49.8139 87.23 50.0839 86.894C50.3539 86.552 50.4889 86.12 50.4889 85.598C50.4889 85.196 50.4109 84.854 50.2549 84.572C50.0989 84.29 49.8229 84.041 49.4269 83.825C49.0309 83.603 48.4789 83.387 47.7709 83.177C46.9549 82.937 46.2469 82.667 45.6469 82.367C45.0529 82.061 44.5909 81.686 44.2609 81.242C43.9369 80.798 43.7749 80.249 43.7749 79.595C43.7749 78.977 43.9459 78.428 44.2879 77.948C44.6299 77.468 45.1009 77.093 45.7009 76.823C46.3069 76.547 47.0029 76.409 47.7889 76.409C48.6469 76.409 49.3909 76.532 50.0209 76.778C50.6569 77.018 51.2329 77.366 51.7489 77.822L50.8309 78.839C50.3869 78.443 49.9099 78.158 49.3999 77.984C48.8899 77.804 48.3709 77.714 47.8429 77.714C47.3929 77.714 46.9789 77.783 46.6009 77.921C46.2289 78.053 45.9289 78.254 45.7009 78.524C45.4789 78.788 45.3679 79.127 45.3679 79.541C45.3679 79.895 45.4639 80.201 45.6559 80.459C45.8479 80.717 46.1719 80.954 46.6279 81.17C47.0839 81.38 47.7049 81.602 48.4909 81.836C49.1329 82.022 49.7269 82.256 50.2729 82.538C50.8249 82.814 51.2689 83.192 51.6049 83.672C51.9409 84.146 52.1089 84.779 52.1089 85.571ZM59.3379 87.902C59.8119 87.902 60.2529 87.824 60.6609 87.668C61.0749 87.512 61.4559 87.314 61.8039 87.074L62.5419 88.064C62.1279 88.418 61.6299 88.697 61.0479 88.901C60.4659 89.105 59.8959 89.207 59.3379 89.207C58.3959 89.207 57.5919 89.006 56.9259 88.604C56.2659 88.196 55.7619 87.626 55.4139 86.894C55.0659 86.156 54.8919 85.292 54.8919 84.302C54.8919 83.354 55.0659 82.505 55.4139 81.755C55.7679 80.999 56.2749 80.405 56.9349 79.973C57.6009 79.541 58.4079 79.325 59.3559 79.325C59.9619 79.325 60.5289 79.418 61.0569 79.604C61.5909 79.784 62.0799 80.057 62.5239 80.423L61.7859 81.431C61.3839 81.149 60.9789 80.939 60.5709 80.801C60.1689 80.657 59.7579 80.585 59.3379 80.585C58.5219 80.585 57.8499 80.891 57.3219 81.503C56.7939 82.115 56.5299 83.048 56.5299 84.302C56.5299 85.142 56.6499 85.829 56.8899 86.363C57.1359 86.891 57.4689 87.281 57.8889 87.533C58.3149 87.779 58.7979 87.902 59.3379 87.902ZM65.9368 89V87.839H67.4128V80.684H65.9368V79.523H68.5648L68.8438 81.764C69.2098 80.984 69.6538 80.381 70.1758 79.955C70.6978 79.529 71.3878 79.316 72.2458 79.316C72.5098 79.316 72.7438 79.337 72.9478 79.379C73.1578 79.415 73.3708 79.463 73.5868 79.523L73.1458 80.873C72.9478 80.819 72.7678 80.78 72.6058 80.756C72.4438 80.726 72.2578 80.711 72.0478 80.711C71.3218 80.711 70.6978 80.969 70.1758 81.485C69.6538 82.001 69.2368 82.781 68.9248 83.825V87.839H70.8508V89H65.9368ZM72.1288 82.727V80.666L72.2818 79.523H73.5868L73.3708 82.727H72.1288ZM81.4368 79.523V87.803H84.1098V89H76.9998V87.803H79.9248V80.72H77.0898V79.523H81.4368ZM80.2308 75.086C80.5668 75.086 80.8338 75.188 81.0318 75.392C81.2358 75.596 81.3378 75.845 81.3378 76.139C81.3378 76.445 81.2358 76.703 81.0318 76.913C80.8338 77.117 80.5668 77.219 80.2308 77.219C79.9128 77.219 79.6518 77.117 79.4478 76.913C79.2438 76.703 79.1418 76.445 79.1418 76.139C79.1418 75.845 79.2438 75.596 79.4478 75.392C79.6518 75.188 79.9128 75.086 80.2308 75.086ZM91.6718 79.325C92.5118 79.325 93.1808 79.529 93.6788 79.937C94.1828 80.345 94.5458 80.921 94.7678 81.665C94.9898 82.403 95.1008 83.267 95.1008 84.257C95.1008 85.211 94.9658 86.063 94.6958 86.813C94.4318 87.557 94.0298 88.142 93.4898 88.568C92.9498 88.994 92.2688 89.207 91.4468 89.207C90.4088 89.207 89.5748 88.841 88.9448 88.109V92.627L87.4328 92.816V79.523H88.7198L88.8458 80.846C89.1938 80.36 89.6078 79.985 90.0878 79.721C90.5738 79.457 91.1018 79.325 91.6718 79.325ZM91.3118 80.54C90.7898 80.54 90.3278 80.699 89.9258 81.017C89.5298 81.329 89.2028 81.677 88.9448 82.061V86.759C89.1908 87.125 89.4998 87.416 89.8718 87.632C90.2498 87.842 90.6638 87.947 91.1138 87.947C91.8998 87.947 92.4908 87.647 92.8868 87.047C93.2828 86.447 93.4808 85.514 93.4808 84.248C93.4808 83.42 93.4028 82.733 93.2468 82.187C93.0908 81.635 92.8538 81.224 92.5358 80.954C92.2178 80.678 91.8098 80.54 91.3118 80.54ZM105.75 88.523C105.426 88.739 105.033 88.907 104.571 89.027C104.109 89.147 103.656 89.207 103.212 89.207C102.192 89.207 101.406 88.94 100.854 88.406C100.302 87.872 100.026 87.185 100.026 86.345V80.693H97.8477V79.523H100.026V77.372L101.538 77.192V79.523H104.814L104.634 80.693H101.538V86.327C101.538 86.855 101.676 87.257 101.952 87.533C102.234 87.809 102.699 87.947 103.347 87.947C103.701 87.947 104.028 87.905 104.328 87.821C104.628 87.737 104.907 87.629 105.165 87.497L105.75 88.523Z" fill="white"/>
</svg>
